<svg width="16" height="16" viewBox="0 0 16 16" fill="none" xmlns="http://www.w3.org/2000/svg">
<g clip-path="url(#clip0_402_4031)">
<path d="M4.66667 3.99992V1.99992C4.66667 1.82311 4.7369 1.65354 4.86193 1.52851C4.98695 1.40349 5.15652 1.33325 5.33333 1.33325H13.3333C13.5101 1.33325 13.6797 1.40349 13.8047 1.52851C13.9298 1.65354 14 1.82311 14 1.99992V11.3333C14 11.5101 13.9298 11.6796 13.8047 11.8047C13.6797 11.9297 13.5101 11.9999 13.3333 11.9999H11.3333V13.9999C11.3333 14.3679 11.0333 14.6666 10.662 14.6666H2.67133C2.58342 14.6671 2.49626 14.6503 2.41488 14.617C2.3335 14.5837 2.25949 14.5347 2.19711 14.4728C2.13472 14.4108 2.0852 14.3372 2.05137 14.256C2.01754 14.1749 2.00009 14.0878 2 13.9999L2.002 4.66659C2.002 4.29859 2.302 3.99992 2.67333 3.99992H4.66667ZM3.33533 5.33325L3.33333 13.3333H10V5.33325H3.33533ZM6 3.99992H11.3333V10.6666H12.6667V2.66659H6V3.99992Z" fill="#0F172A"/>
</g>
<defs>
<clipPath id="clip0_402_4031">
<rect width="16" height="16" fill="white"/>
</clipPath>
</defs>
</svg>
