<svg width="14" height="14" viewBox="0 0 14 14" fill="none" xmlns="http://www.w3.org/2000/svg">
<path d="M7.70684 4.40666L8.65017 5.34999C9.08356 5.78334 9.42735 6.29781 9.6619 6.86403C9.89645 7.43024 10.0172 8.03712 10.0172 8.64999C10.0172 9.26287 9.89645 9.86974 9.6619 10.436C9.42735 11.0022 9.08356 11.5166 8.65017 11.95L8.41417 12.1853C7.53896 13.0605 6.35191 13.5522 5.11417 13.5522C3.87643 13.5522 2.68938 13.0605 1.81417 12.1853C0.938956 11.3101 0.447266 10.1231 0.447266 8.88533C0.447266 7.64759 0.938956 6.46054 1.81417 5.58533L2.7575 6.52866C2.44575 6.83769 2.19811 7.20526 2.02879 7.61026C1.85947 8.01526 1.77182 8.44972 1.77086 8.88868C1.76989 9.32765 1.85565 9.76248 2.02319 10.1682C2.19073 10.574 2.43676 10.9426 2.74716 11.253C3.05756 11.5634 3.4262 11.8094 3.83194 11.977C4.23768 12.1445 4.67251 12.2303 5.11148 12.2293C5.55045 12.2283 5.9849 12.1407 6.3899 11.9714C6.7949 11.8021 7.16247 11.5544 7.4715 11.2427L7.7075 11.0067C8.33241 10.3816 8.68346 9.53387 8.68346 8.64999C8.68346 7.76611 8.33241 6.91842 7.7075 6.29332L6.76417 5.34999L7.7075 4.40733L7.70684 4.40666ZM12.1855 8.41399L11.2428 7.47132C11.5546 7.16229 11.8022 6.79472 11.9716 6.38972C12.1409 5.98472 12.2285 5.55027 12.2295 5.1113C12.2304 4.67234 12.1447 4.2375 11.9772 3.83176C11.8096 3.42603 11.5636 3.05738 11.2532 2.74698C10.9428 2.43658 10.5741 2.19055 10.1684 2.02301C9.76266 1.85547 9.32783 1.76972 8.88886 1.77068C8.44989 1.77164 8.01544 1.85929 7.61044 2.02861C7.20544 2.19793 6.83787 2.44557 6.52884 2.75733L6.29284 2.99333C5.66793 3.61842 5.31688 4.46611 5.31688 5.34999C5.31688 6.23387 5.66793 7.08157 6.29284 7.70666L7.23617 8.64999L6.29284 9.59266L5.35017 8.64999C4.91678 8.21665 4.57299 7.70218 4.33844 7.13596C4.10389 6.56974 3.98317 5.96287 3.98317 5.34999C3.98317 4.73712 4.10389 4.13024 4.33844 3.56403C4.57299 2.99781 4.91678 2.48334 5.35017 2.04999L5.58617 1.81466C6.46138 0.939444 7.64843 0.447754 8.88617 0.447754C10.1239 0.447754 11.311 0.939444 12.1862 1.81466C13.0614 2.68987 13.5531 3.87692 13.5531 5.11466C13.5531 6.3524 13.0614 7.53944 12.1862 8.41466L12.1855 8.41399Z" fill="#0F172A"/>
</svg>
