<svg width="16" height="16" viewBox="0 0 16 16" fill="none" xmlns="http://www.w3.org/2000/svg">
<path d="M9.276 9.71992C9.1691 9.74599 9.0615 9.7691 8.95333 9.78925C8.36627 9.89975 7.76355 9.89749 7.17733 9.78259C7.07467 9.76259 6.92933 9.72725 6.742 9.67725L6.128 10.4753C4.61267 10.4266 4.03667 9.41125 4.03667 9.41125C4.03667 7.15725 5.024 5.32992 5.024 5.32992C6.01133 4.57459 6.95067 4.59525 6.95067 4.59525L7.21933 4.94525C7.2441 4.94178 7.26902 4.93956 7.294 4.93859C7.80614 4.8707 8.32514 4.87294 8.83667 4.94525L9.13133 4.59525C9.13133 4.59525 10.0713 4.57459 11.058 5.33059C11.058 5.33059 12.046 7.15725 12.046 9.41125C12.046 9.41125 11.4627 10.4259 9.94733 10.4753L9.276 9.71925V9.71992ZM6.71733 7.33325C6.31667 7.33325 6 7.63325 6 7.99992C6 8.36659 6.32333 8.66659 6.71733 8.66659C7.11733 8.66659 7.434 8.36659 7.434 7.99992C7.44067 7.63325 7.118 7.33325 6.71733 7.33325ZM9.28267 7.33325C8.88267 7.33325 8.566 7.63325 8.566 7.99992C8.566 8.36659 8.88933 8.66659 9.28267 8.66659C9.68333 8.66659 10 8.36659 10 7.99992C10 7.63325 9.68333 7.33325 9.28267 7.33325ZM14 15.3333L10.6733 11.9999H12.6667V2.66659H3.33333V11.9999H10.6687L11.0487 13.3333H3.33333C2.97971 13.3333 2.64057 13.1928 2.39052 12.9427C2.14048 12.6927 2 12.3535 2 11.9999V2.66659C2 2.31296 2.14048 1.97382 2.39052 1.72378C2.64057 1.47373 2.97971 1.33325 3.33333 1.33325H12.6667C13.0203 1.33325 13.3594 1.47373 13.6095 1.72378C13.8595 1.97382 14 2.31296 14 2.66659V15.3333Z" fill="#0F172A"/>
</svg>
